<svg  version="1.0" xmlns="http://www.w3.org/2000/svg"  width="369.000000pt" height="1000.000000pt"  preserveAspectRatio="xMidYMid meet">  <g transform="translate(0.000000,2100.000000) scale(0.100000,-0.100000)" fill="#f2f2f2" stroke="none"> <path d="M1520 20986 c0 -8 -14 -18 -32 -21 -64 -14 -160 -68 -219 -123 -145 -134 -225 -320 -274 -632 -9 -58 -23 -145 -30 -195 -8 -49 -21 -155 -30 -235 -56 -506 -75 -659 -91 -709 -8 -25 -14 -51 -14 -58 0 -38 -52 -124 -91 -153 -37 -26 -50 -30 -108 -30 -55 0 -73 5 -108 28 -68 45 -96 89 -138 219 -82 248 -87 595 -14 898 63 265 125 398 237 511 77 79 117 103 217 129 39 10 73 24 77 29 4 6 8 66 8 133 0 97 -3 125 -16 137 -13 14 -64 16 -399 16 -211 0 -390 -3 -399 -6 -14 -5 -16 -29 -16 -165 l0 -159 53 0 c60 0 97 -20 97 -52 0 -12 -14 -58 -31 -102 -49 -128 -56 -148 -73 -206 -36 -127 -44 -159 -59 -235 -9 -44 -23 -116 -32 -161 -12 -60 -16 -141 -16 -322 0 -259 10 -345 58 -537 14 -55 28 -111 31 -125 3 -14 22 -67 43 -118 133 -327 322 -482 588 -482 252 0 445 125 564 365 103 209 168 542 232 1190 31 315 60 481 96 540 26 43 69 65 128 65 96 0 162 -69 220 -230 64 -180 82 -585 36 -825 -23 -117 -71 -289 -94 -333 -5 -9 -21 -42 -36 -72 -35 -75 -84 -140 -137 -183 -47 -38 -157 -97 -182 -97 -28 0 -37 -38 -34 -152 l3 -113 360 0 360 0 3 125 c3 143 -3 159 -61 165 -40 3 -67 20 -67 41 0 7 18 57 41 111 94 226 141 400 174 653 27 206 14 498 -30 672 -8 32 -15 66 -15 75 0 20 -59 207 -85 268 -71 169 -150 279 -255 359 -60 45 -107 69 -158 80 -18 4 -32 14 -32 22 0 11 -24 14 -125 14 -101 0 -125 -3 -125 -14z"/> <path d="M1080 17758 c-185 -15 -343 -72 -502 -180 -107 -73 -240 -219 -315 -346 -36 -60 -114 -214 -127 -252 -67 -183 -100 -311 -125 -488 -14 -94 -14 -530 0 -624 18 -128 59 -311 80 -366 5 -13 18 -50 29 -83 42 -124 123 -276 202 -381 89 -118 182 -207 273 -261 28 -17 57 -36 65 -42 20 -15 151 -70 215 -89 113 -35 188 -46 306 -46 274 0 535 105 720 290 66 66 189 221 189 238 0 5 6 14 13 20 35 29 148 291 180 417 9 33 21 80 27 104 46 174 64 566 35 769 -24 167 -63 346 -91 410 -8 18 -14 39 -14 47 0 8 -7 31 -16 52 -9 21 -23 52 -30 68 -82 190 -173 335 -279 440 -225 225 -510 328 -835 303z m294 -684 c360 -81 599 -341 661 -721 17 -105 19 -231 4 -322 -11 -67 -46 -203 -59 -231 -4 -8 -18 -37 -31 -65 -93 -201 -277 -360 -492 -424 -233 -70 -490 -51 -692 51 -86 43 -144 88 -222 172 -129 138 -202 304 -230 523 -14 113 -14 135 0 246 19 147 64 291 120 382 75 123 231 271 327 310 8 4 23 11 32 16 133 71 412 101 582 63z"/> <path d="M1968 14128 c-6 -191 -25 -233 -113 -257 -56 -15 -1329 -15 -1390 0 -71 18 -79 38 -85 219 l-5 155 -114 3 c-75 2 -118 -1 -127 -9 -12 -10 -14 -109 -14 -600 0 -571 1 -589 19 -599 22 -11 210 -14 228 -2 7 5 12 62 15 177 3 182 8 201 57 227 21 10 145 14 580 16 305 2 558 -1 562 -5 10 -10 -19 -52 -73 -111 -19 -21 -74 -82 -123 -137 -48 -55 -91 -102 -94 -105 -4 -3 -69 -77 -146 -165 -77 -88 -143 -162 -146 -165 -3 -3 -46 -50 -94 -105 -91 -102 -125 -140 -205 -230 -25 -27 -75 -84 -110 -125 -36 -41 -74 -84 -85 -95 -12 -11 -54 -58 -95 -105 -41 -47 -88 -101 -106 -120 -120 -133 -158 -178 -171 -196 -10 -17 -13 -65 -11 -225 l3 -204 100 -4 c55 -1 444 3 865 10 598 9 773 10 802 0 64 -21 72 -44 76 -228 l4 -163 102 -2 c126 -2 138 0 148 15 4 6 8 280 8 608 0 498 -2 598 -14 608 -9 8 -52 11 -127 9 l-114 -3 -6 -160 c-7 -205 -20 -236 -104 -249 -54 -8 -905 -27 -916 -20 -11 7 1 30 38 70 15 17 62 68 103 114 41 47 102 114 135 150 33 36 76 84 95 105 20 22 83 92 140 155 57 63 135 151 174 195 39 44 98 109 131 145 33 36 76 84 95 106 31 35 177 196 279 309 20 21 48 55 64 74 l27 34 -2 511 -3 511 -126 3 -126 3 -5 -143z"/> <path d="M1970 10592 c0 -158 -16 -227 -70 -297 -21 -28 -49 -60 -62 -71 -13 -11 -59 -51 -103 -89 -44 -39 -186 -164 -315 -278 -129 -115 -262 -232 -295 -261 -33 -29 -84 -74 -113 -99 -87 -78 -85 -77 -322 -77 -227 0 -266 7 -292 52 -9 15 -15 77 -18 183 l-5 160 -114 3 c-75 2 -118 -1 -127 -9 -21 -17 -21 -1411 0 -1428 9 -8 52 -11 127 -9 l114 3 5 165 c8 251 -6 240 315 240 l240 0 95 -81 c52 -45 118 -102 145 -128 28 -25 82 -73 120 -106 60 -51 94 -81 159 -140 6 -6 63 -55 126 -110 63 -55 117 -103 120 -106 3 -3 43 -39 90 -79 167 -143 171 -151 176 -360 2 -85 4 -161 4 -168 0 -10 29 -12 128 -10 l127 3 3 585 c2 541 1 586 -15 598 -17 12 -197 18 -227 6 -13 -5 -16 -23 -16 -91 0 -56 -5 -94 -15 -113 -27 -53 -46 -44 -205 94 -14 12 -121 104 -237 204 -117 101 -213 189 -213 197 0 8 9 20 20 28 22 15 242 200 424 356 67 57 136 110 154 119 52 26 66 4 72 -116 l5 -97 108 -3 c62 -1 115 2 127 8 20 11 20 21 20 715 0 387 -3 710 -6 719 -5 13 -26 16 -130 16 l-124 0 0 -128z"/> </g> </svg> 