<svg width="150" height="500" xmlns="http://www.w3.org/2000/svg" xmlns:svg="http://www.w3.org/2000/svg" preserveAspectRatio="xMidYMid meet" version="1.0">
 <g class="layer">
  <title>Layer 1</title>
  <g id="svg_2" transform="rotate(90 75 249.682)">
   <path d="m-4.27,212.96c-1.74,0.25 -3.95,0.71 -4.89,1.04c-4.42,1.45 -9.31,4.2 -10.79,6.06l-0.89,1.12l0.08,32.53c0.08,17.86 0.25,32.61 0.38,32.73c0.13,0.12 6.54,0.25 14.24,0.25l13.98,0.04l3.87,-1.25c5.78,-1.83 10.71,-4.94 15.3,-9.68c3.02,-3.12 4.5,-5.11 5.99,-8.23c3.7,-7.73 4.12,-9.64 4.12,-18.07c0,-6.31 -0.08,-7.39 -0.98,-10.18c-1.32,-4.03 -2.76,-6.94 -5.35,-10.8c-2.04,-3.07 -8.24,-9.47 -10.2,-10.47c-6.63,-3.53 -9.69,-4.57 -15.55,-5.28c-4.21,-0.54 -5.01,-0.5 -9.31,0.17l0,0.02zm11.26,15.91c6.03,2.08 11.39,7.19 13.64,13.04c1.57,4.11 1.66,11.26 0.17,15.49c-2.21,6.19 -7.01,11.3 -12.75,13.46c-2.21,0.83 -9.09,1.5 -10.96,1.04l-1.57,-0.37l-0.25,-3.12c-0.17,-1.7 -0.3,-11.05 -0.34,-20.73c-0.04,-21.27 -0.55,-19.57 5.91,-19.57c2.8,0 4.72,0.21 6.16,0.75l-0.01,0.01z" fill="#F2F2F2" id="svg_3"/>
   <path d="m-123.33,213.03c-5.95,0.96 -13.43,4.9 -17.89,9.47c-9.09,9.26 -12.96,20.31 -11.47,32.73c0.68,5.9 1.78,9.1 4.89,14.33c2.51,4.2 7.65,9.47 11.94,12.25c2.04,1.29 6.16,3.16 8.5,3.82c5.18,1.41 15.6,1.58 18.87,0.29c0.76,-0.33 1.7,-0.58 2.04,-0.58c2.55,0 15,-8.35 15,-10.05c0,-0.91 -9.26,-9.06 -10.28,-9.06c-0.38,0 -1.7,0.83 -2.97,1.91c-2.08,1.74 -3.14,2.33 -7.27,4.07c-2.21,0.91 -8.71,0.91 -11.56,-0.04c-5.65,-1.91 -10.54,-6.65 -12.88,-12.59c-1.15,-2.99 -1.83,-9.1 -1.32,-12.46c0.51,-3.2 1.7,-7.23 2.63,-8.85c1.61,-2.82 5.27,-6.94 7.05,-7.93c4.04,-2.24 7.22,-3.16 11.01,-3.16c4.55,0 8.5,1.5 12.62,4.82c1.32,1.04 2.63,1.83 2.97,1.74c0.34,-0.08 2.68,-2.04 5.23,-4.4c3.7,-3.36 4.63,-4.4 4.46,-5.11c-0.3,-1.08 -5.48,-5.69 -8.07,-7.1c-5.78,-3.2 -8.88,-4.07 -15.85,-4.28c-3.14,-0.08 -6.59,0 -7.65,0.17l0,0.01z" fill="#F2F2F2" id="svg_5"/>
   <path d="m209.36,216.01c-1.06,0.21 -2.29,0.54 -2.76,0.79c-0.42,0.25 -1.4,0.66 -2.12,0.91c-1.83,0.62 -5.69,3.2 -7.69,5.03c-2.89,2.7 -4.59,4.94 -6.25,8.43c-2.59,5.4 -2.55,4.57 -2.68,30.74c-0.13,17.61 0,24.18 0.34,24.59c0.38,0.46 2.08,0.58 7.65,0.58c6.37,0 7.18,-0.08 7.52,-0.75c0.34,-0.62 0.89,-15.29 0.93,-24.51c0,-1.95 0.17,-3.41 0.42,-3.41c0.21,0 0.89,0.87 1.44,1.95c1.06,2.12 2.55,3.57 4.93,4.86c1.02,0.58 2.21,0.79 4.5,0.75c4.42,-0.04 6.71,-1.29 9.52,-5.32c0.76,-1.04 1.49,-1.74 1.61,-1.62c0.17,0.17 0.38,6.48 0.51,14.04l0.21,13.79l7.65,0.12c6.8,0.08 7.69,0.04 8.16,-0.62c0.42,-0.54 0.55,-5.69 0.55,-22.68c0,-18.65 -0.08,-22.43 -0.68,-24.97c-1.15,-4.98 -2.51,-8.02 -5.44,-12.01c-3.31,-4.57 -8.16,-7.98 -14.07,-9.93c-2.85,-0.96 -10.92,-1.37 -14.28,-0.79l0.03,0.03zm10.79,15.66c3.91,1.99 5.18,3.61 6.29,8.02c0.85,3.32 1.15,13.5 0.47,13.92c-0.38,0.25 -2.21,-1.91 -2.21,-2.62c0,-0.79 -3.78,-3.61 -5.78,-4.32c-2.72,-0.96 -4.25,-0.91 -7.18,0.21c-2.63,1 -5.52,3.74 -6.08,5.82c-0.55,2.2 -1.15,1.41 -1.4,-1.95c-0.42,-4.69 -0.04,-10.8 0.76,-12.84c1.02,-2.53 2.97,-4.74 5.18,-5.86c2.46,-1.25 7.78,-1.45 9.94,-0.37l0.01,-0.01z" fill="#F2F2F2" id="svg_10"/>
   <path d="m269.91,215.16c-1.15,0.33 -2.63,0.87 -3.27,1.2c-0.59,0.33 -1.32,0.58 -1.53,0.58c-0.89,0 -5.78,3.16 -8.03,5.15c-3.82,3.41 -7.22,9.14 -8.2,13.75c-0.17,0.91 -0.55,2.78 -0.85,4.15c-0.59,2.91 -0.21,44.08 0.47,45.78l0.38,0.96l7.52,-0.08l7.56,-0.12l0.21,-23.89c0.21,-24.88 0.21,-24.88 2.04,-27.83c2.29,-3.66 5.48,-5.4 9.82,-5.4c2.29,0 3.19,0.21 4.93,1.2c3.65,2.08 5.86,5.28 6.33,9.18c0.13,1.25 0.34,12.01 0.47,23.89c0.17,11.88 0.34,21.93 0.47,22.31c0.21,0.66 0.93,0.75 7.39,0.75c6.67,0 7.22,-0.04 7.65,-0.79c0.25,-0.54 0.42,-8.6 0.42,-23.26c0,-20.81 -0.04,-22.64 -0.81,-25.67c-1.83,-7.02 -4.38,-11.47 -9.05,-15.74c-2.97,-2.7 -7.22,-4.98 -11.43,-6.15c-2.97,-0.83 -9.6,-0.83 -12.49,0.04l0,-0.01z" fill="#F2F2F2" id="svg_29"/>
   <path d="m117.69,215.84c-5.44,0.75 -8.84,2.49 -12.79,6.44c-2.46,2.49 -3.65,4.11 -5.01,6.81c-0.93,1.91 -1.74,3.82 -1.74,4.15c0,0.33 -0.3,1.7 -0.64,3.03c-0.51,1.95 -0.64,6.27 -0.64,25.51c0,14.21 0.17,23.6 0.42,24.26l0.42,1.04l7.73,-0.08l7.78,-0.12l0.21,-24.09c0.21,-25.09 0.21,-25.09 2.08,-28.04c1.83,-2.91 3.7,-3.86 7.52,-3.86c3.53,0 4.42,0.42 6.67,3.12c2.55,3.07 2.76,5.44 2.8,30.62c0,11.96 0.13,21.89 0.3,22.1c0.17,0.33 14.87,0.58 15.13,0.25c0.04,-0.04 0.21,-10.63 0.38,-23.55c0.13,-12.92 0.42,-24.22 0.59,-25.13c0.47,-2.24 2,-4.53 4.12,-6.02c1.53,-1.08 2.12,-1.25 4.55,-1.25c2.38,0 3.1,0.17 4.63,1.2c1.02,0.62 2.17,1.62 2.55,2.16c2,2.74 1.95,2.53 2.08,28.12l0.13,24.22l0.98,0.29c1.53,0.54 14.19,0.37 14.75,-0.17c0.38,-0.37 0.55,-7.1 0.72,-23.47c0.21,-20.73 0.17,-23.39 -0.51,-26.75c-1.15,-5.98 -2.29,-8.64 -5.27,-12.38c-5.27,-6.69 -14.7,-10.18 -22.78,-8.47c-5.18,1.12 -7.44,2.2 -11.22,5.28l-2.59,2.08l-2.63,-2.12c-1.49,-1.16 -2.97,-2.2 -3.31,-2.33c-0.34,-0.17 -0.89,-0.46 -1.19,-0.71c-1.1,-0.79 -4.84,-1.87 -7.48,-2.12c-1.4,-0.12 -3.14,-0.29 -3.87,-0.37c-0.68,-0.08 -2.89,0.08 -4.89,0.37l0.02,-0.02z" fill="#F2F2F2" id="svg_32"/>
   <path d="m-65.72,212.63c-1.19,0.21 -2.55,0.54 -3.06,0.83c-0.47,0.25 -1.19,0.46 -1.57,0.46c-1.83,0 -9.86,4.61 -13.13,7.52c-1.83,1.58 -6.03,6.48 -6.84,7.89c-1.1,1.91 -3.48,6.81 -3.99,8.27c-1.15,3.12 -2.17,8.64 -2.17,11.76c0,4.57 1.7,12.75 3.31,15.99c0.21,0.37 0.72,1.45 1.19,2.37c2.89,6.11 9.14,12.25 15.55,15.29c6.42,3.03 12.37,4.32 18.06,3.86c9.69,-0.71 15.64,-3.36 22.44,-9.97c4.67,-4.53 7.27,-8.56 10.03,-15.54c1.7,-4.32 2.34,-13.33 1.27,-18.36c-0.59,-2.78 -1.91,-7.02 -2.59,-8.23c-0.17,-0.37 -0.72,-1.45 -1.15,-2.37c-1.27,-2.78 -4.59,-7.35 -7.14,-9.85c-4.59,-4.61 -9.26,-7.39 -15.51,-9.22c-2.68,-0.79 -11.43,-1.2 -14.7,-0.71l0,0.01zm9.94,14.62c9.65,2.2 16.23,11.3 16.23,22.39c0,9.55 -4.8,17.78 -12.54,21.44c-2.42,1.12 -2.85,1.2 -8.07,1.2c-5.23,0 -5.65,-0.04 -8.07,-1.2c-3.4,-1.62 -5.44,-3.28 -7.73,-6.27c-2.46,-3.16 -3.36,-5.19 -4.46,-10.14c-0.89,-3.9 -0.89,-4.07 -0.17,-8.31c1.74,-10.14 7.78,-17.24 16.19,-19.11c2.42,-0.54 6.29,-0.54 8.63,0l-0.01,0z" fill="#F2F2F2" id="svg_40"/>
   <g id="svg_85">
    <path d="m69.42,212.66c-2.34,0.58 -3.06,0.83 -6.16,2.16c-1.1,0.46 -3.53,1.79 -5.78,3.2c-2.21,1.33 -6.25,5.19 -8.5,8.06c-4.46,5.73 -6.42,10.18 -7.82,17.45c-1.02,5.28 -1.06,7.27 -0.21,11.71c1.7,9.01 5.52,16.33 11.35,21.77c2.8,2.62 7.65,5.98 8.63,5.98c0.34,0 0.68,0.17 0.81,0.37c0.3,0.42 4.63,1.83 8.71,2.74c5.91,1.37 13.77,0.25 19.8,-2.82c0.93,-0.5 2.12,-1.08 2.68,-1.33c1.7,-0.75 1.61,-2.08 -0.34,-4.98c-0.47,-0.71 -0.98,-1.54 -1.15,-1.87c-0.13,-0.33 -0.76,-1.37 -1.36,-2.28c-0.59,-0.91 -1.27,-2.04 -1.53,-2.49c-0.68,-1.29 -1.66,-1.2 -4.76,0.25c-2.72,1.29 -3.14,1.37 -7.56,1.37c-4.38,0 -4.84,-0.08 -7.44,-1.33c-5.52,-2.58 -9.09,-6.73 -11.09,-12.71c-1.15,-3.45 -1.15,-11.59 0.04,-15.66c2.68,-9.47 9.86,-15.33 18.87,-15.33c3.4,0 7.86,1.04 8.92,2.08c1.1,1.08 2.25,0.37 4.08,-2.41c4.84,-7.27 5.31,-8.1 5.01,-8.89c-0.21,-0.54 -4.38,-2.74 -6.93,-3.7c-5.44,-1.99 -13.26,-2.58 -18.27,-1.33l0,-0.01z" fill="#F2F2F2" id="svg_7"/>
    <path d="m63.94,240.2c-1.83,0.83 -3.4,2.33 -4.84,4.61c-1.4,2.24 -1.36,7.23 0.13,9.51c2.17,3.36 4.89,4.98 8.46,4.98c3.61,0 6.8,-1.83 9.01,-5.19c1.23,-1.91 1.15,-7.77 -0.17,-9.85c-2.72,-4.24 -8.29,-6.02 -12.58,-4.07l-0.01,0.01z" fill="#F2F2F2" id="svg_20"/>
   </g>
  </g>
 </g>
</svg>